# xmcd
# 
# Track frame offsets:
#     150
#     18445
#     36776
#     49126
#     66560
#     80436
#     96948
#     115148
#     133145
#     150643
#     168819
#     190209
#     208994
#     226782
#     243797
#     260392
#     274290
#     292256
#     309141
# 
# Disc length: 4328
# 
# Revision: 1
# Processed by: cddbd v1.5.2PL0 Copyright (c) Steve Scherf et al.
# Submitted via: BonkEnc v1.0.5
# 
DISCID=0e10e613
DTITLE=Various Artist - I Love R&B 2006 Vol. 1
DYEAR=2006
DGENRE=R&B
TTITLE0=Black Eyed Peas - Don't Phunk With My Heart
TTITLE1=Keyshia Cole - Never Featuring EVE
TTITLE2=Fatman Scoop - Be Faithful
TTITLE3=Nina Sky - Move YA Body Featuring Jabba
TTITLE4=Lumidee - Never Leave You (Uh Oooh, Uhoooh)
TTITLE5=Chante Moore - Straight Up
TTITLE6=Blackstreet - Take Me There Remix
TTITLE7=Incognito - Nights Over Egypt
TTITLE8=Dru Hill - Tell Me
TTITLE9=K-Ci and JoJo - Crazy
TTITLE10=Jodeci - Gotta Love
TTITLE11=Apache Indian - Chokthere
TTITLE12=Bobby Brown - Every Little Step
TTITLE13=Swing Out Sister - Breakout
TTITLE14=Kool and The Gang - Celebration
TTITLE15=Father MC - I'll Do 4 You
TTITLE16=Guy - Let's Stay Together
TTITLE17=A Lighter Shade Of Brown - Hey DJ
TTITLE18=Positive K - I Got A Man
EXTD=
EXTT0=
EXTT1=
EXTT2=
EXTT3=
EXTT4=
EXTT5=
EXTT6=
EXTT7=
EXTT8=
EXTT9=
EXTT10=
EXTT11=
EXTT12=
EXTT13=
EXTT14=
EXTT15=
EXTT16=
EXTT17=
EXTT18=
PLAYORDER=
